<svg version="1.1" xmlns="http://www.w3.org/2000/svg" xmlns:xlink="http://www.w3.org/1999/xlink" x="0px" y="0px"
     width="128" height="128" viewBox="0 0 550 550">
    <title>Make Paths Relative</title>
    <g>
        <path d="M120.8,334.9v-28.2l-11,21h-4.5l-11-21v28.2H86v-42.6h8.9l12.6,24.2l12.7-24.2h8.8v42.6H120.8z"/>
        <path fill="#FFFFFF" d="M103.9,352.3h7.3l16.2,42.6h-8.5l-4-10.6h-14.9l-3.9,10.6h-8.5L103.9,352.3z M113.5,378.5l-5.9-16.7
            l-6.1,16.7H113.5z"/>
        <path d="M91.9,454.9v-42.5h8.3v20.2l17.9-20.3h9.1l-16.3,18.9l17.3,23.7h-9.3l-13.3-18.4l-5.5,5.7v12.7H91.9z"/>
        <path fill="#FFFFFF" d="M123.5,507.7v7.3H93.9v-42.6h29v7.3h-20.8v10.3h17.9v6.7h-17.9v11.1H123.5z"/>
    </g>
    <g>
        <path d="M45.9,395.3v-42.6H64c2,0,3.8,0.4,5.4,1.2c1.7,0.8,3.1,1.9,4.3,3.2c1.2,1.3,2.1,2.9,2.8,4.6c0.7,1.7,1,3.4,1,5.1
            c0,1.8-0.3,3.6-1,5.3c-0.6,1.7-1.5,3.2-2.7,4.5c-1.2,1.3-2.6,2.4-4.2,3.2c-1.6,0.8-3.4,1.2-5.4,1.2H54.2v14.3H45.9z M54.2,373.8
            h9.6c1.5,0,2.8-0.6,3.8-1.9c1-1.2,1.5-2.9,1.5-5c0-1.1-0.2-2-0.5-2.9c-0.3-0.9-0.7-1.6-1.3-2.2c-0.5-0.6-1.1-1-1.8-1.3
            c-0.7-0.3-1.4-0.5-2.1-0.5h-9.2V373.8z"/>
        <path d="M104.7,352.7h7.3l16.2,42.6h-8.5l-4-10.6h-14.9L97,395.3h-8.5L104.7,352.7z M114.2,378.9l-5.9-16.7l-6.1,16.7H114.2z"/>
        <path d="M172.6,360h-13.6v35.3h-8.2V360h-13.6v-7.3h35.5V360z"/>
        <path d="M225.7,352.7v42.6h-8.2v-18.2h-19.3v18.2h-8.3v-42.6h8.3v17.2h19.3v-17.2H225.7z"/>
        <path d="M271.9,363.9c-0.3-0.3-0.8-0.7-1.5-1.1c-0.7-0.5-1.6-1-2.7-1.4c-1.1-0.5-2.2-0.8-3.5-1.2c-1.2-0.3-2.5-0.5-3.8-0.5
            c-2.3,0-4,0.4-5.1,1.3c-1.1,0.8-1.7,2-1.7,3.5c0,0.9,0.2,1.6,0.6,2.2c0.4,0.6,1,1.1,1.8,1.5c0.8,0.4,1.8,0.8,3,1.2
            c1.2,0.4,2.6,0.7,4.2,1.1c2.1,0.6,4,1.2,5.7,1.8c1.7,0.6,3.1,1.4,4.3,2.4c1.2,1,2.1,2.1,2.7,3.5c0.6,1.3,1,3,1,5
            c0,2.3-0.4,4.2-1.3,5.8c-0.9,1.6-2,2.9-3.5,3.9c-1.5,1-3.1,1.7-5,2.2c-1.9,0.5-3.9,0.7-6,0.7c-3.2,0-6.4-0.5-9.5-1.4
            s-5.9-2.3-8.4-4.1l3.7-7.1c0.4,0.4,1,0.8,1.9,1.4c0.9,0.6,2,1.2,3.3,1.7c1.3,0.6,2.7,1.1,4.3,1.5c1.6,0.4,3.2,0.6,4.8,0.6
            c4.6,0,6.8-1.5,6.8-4.4c0-0.9-0.3-1.7-0.8-2.3c-0.5-0.6-1.3-1.2-2.2-1.7c-1-0.5-2.1-0.9-3.5-1.3c-1.4-0.4-2.9-0.8-4.6-1.3
            c-2-0.6-3.8-1.2-5.3-1.8s-2.8-1.4-3.8-2.3s-1.8-1.9-2.3-3.1c-0.5-1.2-0.8-2.6-0.8-4.2c0-2.2,0.4-4.1,1.2-5.8
            c0.8-1.7,1.9-3.1,3.3-4.2c1.4-1.1,3.1-2,5-2.6c1.9-0.6,3.9-0.9,6.1-0.9c3,0,5.8,0.5,8.3,1.4c2.5,0.9,4.7,2.1,6.6,3.3L271.9,363.9z"
            />
    </g>
    <g>
        <path d="M16,517.7v-45.4h20.1c2.1,0,4,0.4,5.8,1.3c1.8,0.9,3.3,2,4.6,3.5c1.3,1.4,2.3,3.1,3,4.9c0.7,1.8,1.1,3.6,1.1,5.5
            c0,2.9-0.7,5.6-2.2,8c-1.5,2.4-3.5,4.1-6,5.2l10.4,17.1h-9.9l-9.3-15.2h-8.7v15.2H16z M24.8,494.7h11.1c0.8,0,1.6-0.2,2.3-0.6
            s1.3-0.9,1.8-1.6c0.5-0.7,0.9-1.4,1.2-2.3c0.3-0.9,0.4-1.9,0.4-2.9c0-1.1-0.2-2-0.5-2.9c-0.3-0.9-0.8-1.7-1.4-2.3
            c-0.6-0.7-1.2-1.2-2-1.5c-0.7-0.4-1.5-0.5-2.3-0.5H24.8V494.7z"/>
        <path d="M122.1,509.9v7.7H90.5v-45.4h31v7.7H99.4v10.9h19.1v7.2H99.4v11.8H122.1z"/>
        <path d="M161,517.7v-45.4h8.8v37.7H193v7.7H161z"/>
        <path d="M243.3,472.3h7.8l17.3,45.4h-9.1l-4.2-11.3h-15.9l-4.2,11.3h-9.1L243.3,472.3z M253.5,500.2l-6.3-17.9l-6.5,17.9H253.5z"/>
        <path d="M334.9,480h-14.5v37.7h-8.8V480h-14.5v-7.7h37.8V480z"/>
        <path d="M372.5,517.7v-45.4h8.8v45.4H372.5z"/>
        <path d="M427.5,472.3l12.3,34.4l12.2-34.4h9.3l-17.7,45.4h-7.4l-17.9-45.4H427.5z"/>
        <path d="M529.6,509.9v7.7h-31.6v-45.4h31v7.7h-22.1v10.9H526v7.2h-19.1v11.8H529.6z"/>
    </g>
    <g>
        <path fill="#D81F2A" d="M492.9,285.2c-10.6-5.5-23.5-1.3-29,9.2c-0.8,1.5-1.3,3-1.7,4.6l-19.9-0.9c-0.9-4.8-2.8-9.4-5.9-13.6
            c-9.4-12.4-25.8-16.3-39.5-10.3l-46-75.1c15.8-12.8,18.8-35.9,6.4-52.3c-8.9-11.9-23.6-16.9-37.3-14.4l-28.4-77.5
            c0.8-0.5,1.7-0.9,2.5-1.5c11.1-8.4,13.4-24.2,4.9-35.3c-8.3-11.1-24.1-13.4-35.3-5c-11.1,8.4-13.3,24.2-5,35.3
            c5.9,7.8,15.5,11.1,24.5,9.5l28.2,77c-2.6,1.1-5.1,2.5-7.5,4.3c-6.8,5.2-11.3,12.2-13.5,19.8l-72.1-20.4
            c0.9-8.8-2.8-17.7-10.5-23.1c-11.4-8-27.1-5.2-35.1,6.2c-8,11.4-5.2,27.1,6.2,35.1c11.4,8,27.1,5.2,35.1-6.2
            c0.8-1.1,1.3-2.3,1.9-3.4l73.1,20.7c-0.4,8.6,1.9,17.3,7.4,24.7c1.9,2.5,4.2,4.7,6.5,6.6l-7.7,14.4c-6.3-1.8-13.3-0.8-18.9,3.4
            c-9.5,7.1-11.4,20.6-4.3,30.1c7.1,9.5,20.6,11.4,30.1,4.3c9.5-7.1,11.4-20.6,4.3-30.1c-1-1.3-2.2-2.4-3.4-3.5l7.4-13.8
            c10.2,4.9,22.4,5.2,32.9,0.1l45.9,74.9c-11.5,9.4-15,25-9.4,38.1L323,350.9c-6.9-7.3-18.3-8.5-26.5-2.3c-8.9,6.7-10.7,19.3-4,28.1
            c6.7,8.9,19.3,10.7,28.1,4c7-5.3,9.5-14.3,7-22.2l56.9-33.8c1.5,2,3.3,3.7,5.2,5.2l-45.8,77c-6.4-2.2-13.7-1.3-19.6,3.1
            c-9.4,7.1-11.3,20.4-4.2,29.8c7,9.4,20.4,11.3,29.7,4.2c9.4-7,11.3-20.4,4.3-29.7c-0.8-1-1.6-1.9-2.6-2.8l45.9-77
            c10.4,4.4,22.8,3.4,32.6-3.9c7.8-5.9,12.1-14.5,12.8-23.5l19.1,0.8c1.1,6.4,5,12.3,11.3,15.6c10.5,5.5,23.5,1.3,29-9.2
            C507.6,303.6,503.5,290.6,492.9,285.2z"/>
    </g>
    <line fill="none" stroke="#FFFFFF" stroke-width="3" stroke-miterlimit="10" x1="350.3" y1="241.8" x2="383.4" y2="225.7"/>
    <line fill="none" stroke="#FFFFFF" stroke-width="3" stroke-miterlimit="10" x1="350.3" y1="233.9" x2="383.4" y2="217.8"/>
    <line fill="none" stroke="#FFFFFF" stroke-width="3" stroke-miterlimit="10" x1="357" y1="245.9" x2="390.1" y2="229.8"/>
    <line fill="none" stroke="#FFFFFF" stroke-width="3" stroke-miterlimit="10" x1="283.5" y1="100.1" x2="316.6" y2="83.9"/>
    <line fill="none" stroke="#FFFFFF" stroke-width="3" stroke-miterlimit="10" x1="283.5" y1="92.1" x2="316.6" y2="76"/>
    <line fill="none" stroke="#FFFFFF" stroke-width="3" stroke-miterlimit="10" x1="290.2" y1="104.1" x2="323.3" y2="88"/>
</svg>