<svg version="1.1" xmlns="http://www.w3.org/2000/svg" x="0px" y="0px" width="128" height="128" viewBox="0 0 128 128">
<title>SCHEMA for Article</title>
<g>
	<path fill="#8F96AB" d="M94.333,62.313c-0.572,0-1.115-0.254-1.498-0.669L74.221,39.204l-12.59,10.104
		c-0.701,0.829-1.945,0.956-2.774,0.255c-0.828-0.701-0.955-1.944-0.254-2.773l14.089-11.889c0.381-0.447,0.923-0.702,1.498-0.702
		c0.637-0.032,1.147,0.255,1.528,0.669l18.106,21.898l14.789-18.806c0.446-0.988,1.625-1.435,2.614-0.957
		c0.987,0.447,1.435,1.626,0.955,2.614L96.151,61.167c-0.288,0.605-0.86,1.02-1.53,1.115C94.526,62.313,94.43,62.313,94.333,62.313z
		"/>
	
		<rect x="51.526" y="66.486" transform="matrix(0.7071 0.7071 -0.7071 0.7071 69.5935 -16.8303)" fill="#D8DEEC" width="7.172" height="18.201"/>
	<path fill="#C7CFE2" d="M54.491,71.143c1.53,1.817,3.25,3.538,5.068,5.068l4.526-4.526l-5.067-5.068L54.491,71.143z"/>
	<path fill="#D8DEEC" d="M86.302,6.756c-20.782,0-37.613,16.861-37.613,37.612c0,20.751,16.862,37.613,37.613,37.613
		c20.782,0,37.612-16.861,37.612-37.613C123.914,23.617,107.084,6.756,86.302,6.756z M86.302,76.052
		c-17.499,0-31.684-14.185-31.684-31.684c0-17.499,14.185-31.683,31.684-31.683s31.685,14.184,31.685,31.683
		C117.986,61.867,103.801,76.052,86.302,76.052z"/>
	<path fill="#717588" d="M14.424,120.453l-4.207-4.208c-1.563-1.562-1.563-4.047,0-5.609l33.437-33.437
		c1.561-1.563,4.049-1.563,5.611,0l4.207,4.206c1.563,1.563,1.563,4.049,0,5.611l-33.437,33.437
		C18.504,122.016,15.986,122.016,14.424,120.453z"/>
	<path fill="#5C5E6F" d="M14.201,114.62l33.437-33.437c1.563-1.563,4.047-1.563,5.61,0l0.255,0.254l0,0l-4.208-4.208
		c-1.561-1.561-4.049-1.561-5.609,0l-33.437,33.438c-1.562,1.563-1.562,4.048,0,5.609l3.953,3.952
		C12.639,118.669,12.639,116.149,14.201,114.62z"/>
	<path fill="#C7CFE2" d="M51.017,89.471l2.454-2.454c1.561-1.563,1.561-4.049,0-5.611l-4.207-4.206c-1.562-1.563-4.05-1.563-5.611,0
		l-2.454,2.454L51.017,89.471z"/>
	<g opacity="0.97">
		<path fill="#AFB9D2" d="M45.184,83.638l2.454-2.454c1.563-1.563,4.047-1.563,5.61,0l0.255,0.254l0,0l-4.208-4.208
			c-1.561-1.561-4.049-1.561-5.609,0l-2.455,2.456L45.184,83.638z"/>
	</g>
	<circle fill="#F16465" cx="60.133" cy="48.002" r="3.952"/>
	<circle fill="#FFD782" cx="74.221" cy="36.144" r="3.953"/>
	<circle fill="#C4DC7B" cx="94.333" cy="60.337" r="3.952"/>
	<circle fill="#41C7F2" cx="110.399" cy="38.758" r="3.952"/>
	<g>
		<circle fill="#2E404E" cx="83.306" cy="47.173" r="4.43"/>
		<path fill="#48B19B" d="M87.736,47.173c0-0.893-0.255-1.722-0.7-2.423c0,0-0.257,0.383-0.192,0.606
			c0.031,0.223,0.317,0.255,0.287,0.414c-0.032,0.16-0.224-0.063-0.478,0.415c-0.257,0.446-0.128,1.084,0.222,1.148
			C87.226,47.396,87.736,47.173,87.736,47.173z"/>
		<path fill="#48B19B" d="M84.453,42.87c0.51,0.128,0.988,0.382,1.403,0.669c0,0-0.511-0.096-0.701,0.096
			c-0.192,0.159-0.479,0.574-0.702,0S84.453,42.87,84.453,42.87z"/>
		<path fill="#48B19B" d="M79.959,44.241c0.828-0.925,2.008-1.498,3.347-1.498c0,0-0.288,0.191,0.255,0.478
			c0.573,0.318,0.318,0.446,0.19,0.542c-0.126,0.096-0.318-0.191-0.445-0.382s-0.701-0.478-1.147-0.319
			c-0.445,0.16-0.828,0.287-0.766,0.415c0.064,0.159,0.829-0.128,1.117-0.128c0.286,0,0.189,0.191-0.064,0.383
			c-0.255,0.191-0.287,0.446,0,0.606c0.286,0.159,0.637,0.159,0.701,0.063s-0.129-0.702,0.383-0.446
			c0.541,0.255,0.986,0.414,0.541,0.829c-0.445,0.383-0.956,0.829-0.956,1.084c0,0.255,0.16,0.446,0.064,0.478
			c-0.097,0-0.191-0.096-0.256-0.191c-0.063-0.096-0.351-0.127-0.51-0.064c-0.128,0.064-0.414,0.255-0.255,0.479
			c0.159,0.191,0.352,0.096,0.573,0.191c0.224,0.096,0.383,0.446,0.351,0.542s-0.222-0.032-0.351-0.287
			c-0.159-0.287-0.414-0.096-0.604-0.127c-0.192-0.032-0.319-0.064-0.511-0.415s-0.574-0.414-0.733-0.605
			c-0.446-0.542-0.414-0.956-0.511-1.147C80.215,44.559,79.959,44.241,79.959,44.241z"/>
		<path fill="#48B19B" d="M83.72,47.237c0,0,0.478,0.032,0.701,0.254c0.224,0.191,0.256,0.287,0.638,0.352
			c0.383,0.063,0.51,0.287,0.287,0.669c-0.223,0.382-0.669,1.02-0.86,1.211s-0.447,0.351-0.542,0.669
			c-0.096,0.318-0.128,0.51,0.064,0.637c0,0-0.097,0.255-0.352-0.063c-0.256-0.351-0.031-0.765,0-0.988
			c0.032-0.224,0.159-0.957,0.095-1.116c-0.063-0.16-0.445-0.287-0.54-0.638C83.114,47.874,83.273,47.109,83.72,47.237z"/>
		<path opacity="0.6" fill="#263845" enable-background="new    " d="M80.15,44.017c1.72-1.721,4.526-1.721,6.278,0
			c1.723,1.722,1.723,4.526,0,6.28c0,0,2.009-2.646-0.828-5.515C82.731,41.945,80.15,44.017,80.15,44.017z"/>
	</g>
</g>
</svg>
