<svg version="1.1" xmlns="http://www.w3.org/2000/svg" xmlns:xlink="http://www.w3.org/1999/xlink" x="0px" y="0px" width="128" height="128" viewBox="0 0 50 50">
    <title>Custom Permalinks</title>
    <g>
        <path fill="#F36E21" d="M41.4,9.1c-3.3-3.3-8.7-3.3-12,0l-6,6c-0.5,0.5-0.5,1.3,0,1.8c0.5,0.5,1.3,0.5,1.8,0l6-6
            c1.1-1.1,2.6-1.7,4.2-1.7c1.6,0,3,0.6,4.2,1.7c1.1,1.1,1.7,2.6,1.7,4.2c0,1.5-0.6,3-1.7,4.2l-7.8,7.9c-2.3,2.3-6.1,2.3-8.3,0
            c-0.5-0.5-1.3-0.5-1.8,0c-0.5,0.5-0.5,1.3,0,1.8c1.7,1.7,3.8,2.5,6,2.5c2.2,0,4.4-0.8,6-2.5l7.9-7.9c1.6-1.6,2.5-3.8,2.5-6
            C43.9,12.8,43,10.7,41.4,9.1z"/>
        <path fill="#FFC82C" d="M25.7,33.1l-5.1,5.1c-1.1,1.1-2.6,1.7-4.2,1.7c-1.5,0-3-0.6-4.2-1.7c-2.3-2.3-2.3-6.1,0-8.3l7.4-7.4
            c1.1-1.1,2.6-1.7,4.2-1.7c1.5,0,3,0.6,4.2,1.7c0.5,0.5,1.3,0.5,1.8,0c0.5-0.5,0.5-1.3,0-1.8c-3.3-3.3-8.7-3.3-12,0l-7.4,7.4
            c-1.6,1.6-2.5,3.8-2.5,6c0,2.3,0.9,4.4,2.5,6c1.6,1.6,3.8,2.5,6,2.5c2.3,0,4.4-0.9,6-2.5l5.1-5.1c0.5-0.5,0.5-1.3,0-1.9
            C27.1,32.7,26.2,32.7,25.7,33.1z"/>
    </g>
    <path d="M0.4,11.5c0-1.3,0.2-2.5,0.7-3.8s1.1-2.4,2-3.4c0.9-1,2-1.8,3.2-2.4C7.6,1.3,9,1,10.6,1c1.9,0,3.6,0.4,4.9,1.3
        c1.4,0.8,2.4,2,3.1,3.3L16,7.3c-0.3-0.6-0.7-1.2-1.1-1.6c-0.4-0.4-0.9-0.8-1.4-1c-0.5-0.3-1-0.4-1.5-0.5C11.5,4.1,11,4,10.5,4
        C9.4,4,8.4,4.2,7.6,4.7c-0.8,0.4-1.5,1-2.1,1.8C4.9,7.2,4.5,8.1,4.2,9c-0.3,0.9-0.4,1.8-0.4,2.7c0,1,0.2,2,0.5,2.9
        c0.3,0.9,0.8,1.7,1.4,2.5c0.6,0.7,1.3,1.3,2.1,1.7c0.8,0.4,1.7,0.6,2.7,0.6c0.5,0,1-0.1,1.6-0.2c0.5-0.1,1.1-0.3,1.6-0.6
        s1-0.6,1.4-1.1c0.4-0.4,0.8-1,1.1-1.6l2.8,1.6c-0.3,0.8-0.8,1.5-1.4,2.1c-0.6,0.6-1.3,1.1-2.1,1.5c-0.8,0.4-1.6,0.7-2.4,0.9
        c-0.9,0.2-1.7,0.3-2.5,0.3c-1.5,0-2.8-0.3-4.1-0.9c-1.2-0.6-2.3-1.5-3.2-2.5c-0.9-1-1.6-2.2-2.1-3.5S0.4,12.8,0.4,11.5z"/>
    <path d="M34.3,49.9v-21h8.8c0.9,0,1.8,0.2,2.6,0.6c0.8,0.4,1.5,0.9,2.1,1.6c0.6,0.6,1,1.4,1.3,2.2s0.5,1.7,0.5,2.5
        c0,0.9-0.2,1.7-0.5,2.6c-0.3,0.8-0.7,1.6-1.3,2.2c-0.6,0.6-1.2,1.2-2,1.5c-0.8,0.4-1.6,0.6-2.6,0.6h-5.7V50L34.3,49.9L34.3,49.9z
         M37.7,39.7h5.5c0.5,0,0.9-0.1,1.3-0.3c0.4-0.2,0.7-0.5,1-0.8c0.3-0.4,0.5-0.8,0.7-1.2c0.2-0.4,0.2-1,0.2-1.6c0-0.6-0.1-1.1-0.3-1.6
        s-0.4-0.9-0.7-1.2c-0.3-0.3-0.7-0.6-1.1-0.8s-0.8-0.3-1.3-0.3h-5.3V39.7L37.7,39.7z"/>
</svg>