<svg version="1.1" xmlns="http://www.w3.org/2000/svg" x="0px" y="0px" width="128px" height="128px" viewBox="0 0 128 128">
<title>Permalink Customizer</title>
<g>
	<path fill="#8797CA" d="M57.494,81.678c-0.5,0-0.999-0.187-1.404-0.562c-4.809-4.745-7.462-10.99-7.462-17.578
		c0-6.774,2.779-13.269,7.805-18.202l24.354-24.041c10.177-10.022,26.757-10.022,36.935,0c4.934,4.839,7.648,11.334,7.648,18.234
		c0,6.899-2.715,13.394-7.648,18.233L94.836,81.086c-0.781,0.779-2.031,0.812-2.811,0.03c-0.781-0.78-0.811-2.03-0.031-2.81
		l22.916-23.354c4.184-4.121,6.463-9.585,6.463-15.392c0-5.838-2.279-11.303-6.432-15.392c-8.647-8.493-22.697-8.493-31.314,0
		L59.243,48.177c-4.277,4.184-6.619,9.647-6.619,15.361c0,5.526,2.217,10.741,6.275,14.736c0.781,0.782,0.781,2.03,0.032,2.812
		C58.524,81.491,57.993,81.678,57.494,81.678z"/>
	<path fill="#8797CA" d="M31.674,121.611c-6.682,0-13.363-2.499-18.452-7.524c-4.934-4.839-7.65-11.333-7.65-18.233
		s2.716-13.395,7.65-18.234l22.885-23.322c0.781-0.78,2.03-0.812,2.811-0.031c0.78,0.78,0.812,2.029,0.031,2.81L16.031,80.461
		c-4.184,4.121-6.463,9.586-6.463,15.393c0,5.837,2.279,11.302,6.433,15.393c8.648,8.523,22.697,8.523,31.315,0l24.382-24.01
		c4.279-4.185,6.621-9.647,6.621-15.362c0-5.525-2.218-10.74-6.275-14.735c-0.781-0.781-0.781-2.03-0.031-2.811
		c0.78-0.781,2.029-0.781,2.81-0.031c4.808,4.746,7.462,10.99,7.462,17.577c0,6.775-2.78,13.27-7.805,18.204l-24.385,24.009
		C45.037,119.112,38.355,121.611,31.674,121.611z"/>
</g>
<g>
	<path fill="#E54D3C" d="M39.51,41.746c-0.5,0-1.031-0.188-1.405-0.594l-9.991-9.991c-0.781-0.78-0.781-2.029,0-2.809
		c0.78-0.781,2.029-0.781,2.81,0l9.991,9.991c0.781,0.78,0.781,2.029,0,2.81C40.541,41.559,40.01,41.746,39.51,41.746z"/>
	<path fill="#E54D3C" d="M45.505,37.75c-1.093,0-1.999-0.906-1.999-1.998V23.793c0-1.093,0.906-1.998,1.999-1.998
		s1.999,0.905,1.999,1.998v11.989C47.503,36.875,46.598,37.75,45.505,37.75z"/>
	<path fill="#E54D3C" d="M35.514,47.74H23.525c-1.093,0-1.999-0.905-1.999-1.998c0-1.092,0.906-1.999,1.999-1.999h11.989
		c1.093,0,1.999,0.906,1.999,1.999C37.513,46.835,36.607,47.74,35.514,47.74z"/>
	<path fill="#E54D3C" d="M101.392,107.623c-0.499,0-1.03-0.187-1.404-0.593l-9.991-9.99c-0.781-0.781-0.781-2.03,0-2.81
		c0.78-0.781,2.029-0.781,2.809,0l9.991,9.99c0.78,0.779,0.78,2.029,0,2.81C102.421,107.437,101.923,107.623,101.392,107.623z"/>
	<path fill="#E54D3C" d="M85.437,113.618c-1.092,0-1.997-0.905-1.997-1.998V99.632c0-1.094,0.905-1.999,1.997-1.999
		c1.093,0,2,0.905,2,1.999v11.988C87.437,112.713,86.529,113.618,85.437,113.618z"/>
	<path fill="#E54D3C" d="M107.387,91.668h-11.99c-1.093,0-1.997-0.903-1.997-1.997c0-1.093,0.904-1.998,1.997-1.998h11.99
		c1.093,0,1.998,0.905,1.998,1.998C109.385,90.765,108.479,91.668,107.387,91.668z"/>
</g>
</svg>
